<?xml version="1.0" encoding="UTF-8"?>
<svg width="74px" height="80px" viewBox="0 0 74 80" version="1.1" xmlns="http://www.w3.org/2000/svg" xmlns:xlink="http://www.w3.org/1999/xlink">
    <!-- Generator: Sketch 64 (93537) - https://sketch.com -->
    <title>Arrow_blue@3x</title>
    <desc>Created with Sketch.</desc>
    <g id="Asset" stroke="none" stroke-width="1" fill="none" fill-rule="evenodd">
        <g id="Login1.2" transform="translate(-535.000000, -531.000000)" fill="#43A5E4">
            <g id="text" transform="translate(308.000000, 422.000000)">
                <path d="M281.525526,112.047536 C287.144668,112.208791 292.695776,112.883756 298.184615,113.679662 C299.342345,113.847827 300.146068,114.922473 299.977713,116.08005 C299.959263,116.213661 299.926976,116.341513 299.88431,116.464758 L299.857789,116.541929 C298.411779,120.666589 297.18025,124.864965 296.171272,129.110566 C295.176132,133.360774 294.333203,137.642081 293.74396,141.961398 C293.559461,143.321695 292.306022,144.274248 290.94419,144.088806 C290.484096,144.025456 290.068974,143.841165 289.729957,143.571639 L289.693058,143.54054 C287.836538,142.052392 285.974254,140.613771 284.095825,138.974734 C283.156034,138.151184 282.238153,137.272347 281.385999,136.411939 L280.493486,136.341679 L278.556249,139.055361 L276.802357,141.903807 C276.283454,142.896674 275.741489,143.875719 275.238729,144.878953 C274.780942,145.905222 274.298939,146.921126 273.854988,147.957762 C273.442172,149.010523 272.998222,150.050615 272.607315,151.114895 C272.245236,152.191844 271.854329,153.259579 271.51416,154.346896 L270.554766,157.639943 C270.268793,158.751447 269.959757,159.85604 269.691081,160.974456 L268.935789,164.351586 L268.250837,167.756359 L267.635072,171.187625 L267.063126,174.638471 L266.529233,178.106595 L265.463752,185.071637 C265.37035,185.669431 264.813394,186.078326 264.216079,185.987332 C263.670654,185.904402 263.280901,185.427549 263.286666,184.891954 C263.305116,182.531879 263.369691,180.171804 263.464246,177.808274 C263.583017,175.445895 263.720238,173.07891 263.926646,170.70962 C264.152657,168.344938 264.40519,165.972193 264.747666,163.605208 L265.338062,160.05876 C265.556001,158.878147 265.8143,157.700989 266.050689,156.520376 C266.308987,155.343218 266.641085,154.17873 266.933977,153.005028 C267.255697,151.839388 267.633919,150.682963 267.984467,149.519627 C268.364996,148.364354 268.804334,147.224054 269.21369,146.07454 C269.668019,144.937695 270.188075,143.826191 270.67469,142.700865 C271.21089,141.59512 271.794367,140.508956 272.353629,139.412425 C272.972853,138.34469 273.625518,137.29308 274.262039,136.232256 C274.963134,135.210593 275.695364,134.20736 276.419522,133.200671 L278.819159,130.346467 C279.698988,129.299464 281.262615,129.16355 282.310799,130.043538 C282.376527,130.097674 282.437642,130.154113 282.496451,130.215159 L285.019472,132.81942 C285.83242,133.64988 286.625765,134.414687 287.467541,135.159913 C289.162624,136.643455 289.298436,138.170805 289.590466,136.645034 C290.150081,133.721202 290.811139,130.817634 291.599161,127.948382 C292.541607,124.470669 293.627191,121.035266 294.851845,117.65146 C294.876982,117.582005 294.902573,117.523222 294.927887,117.473764 L294.949,117.435 C294.855693,117.448168 294.734956,117.446931 294.579484,117.421099 C294.450515,117.39967 294.321548,117.378337 294.192584,117.357105 C289.910263,116.652094 285.630082,116.058378 281.343334,115.767908 C277.387432,115.488624 273.392734,115.886869 269.379885,115.623023 C269.314261,115.618708 269.255427,115.609231 269.204077,115.597092 L269.182,115.591 L269.238739,115.631174 C269.408239,115.75365 269.660702,115.963876 270.009341,116.309262 C271.274311,117.564744 272.415898,118.863994 273.571321,120.076858 C274.116746,120.650464 274.093684,121.558096 273.520584,122.102906 C273.414497,122.203114 273.298033,122.283741 273.173496,122.34594 L273.151587,122.357458 L268.87698,124.469892 L264.775341,126.916353 L260.865119,129.671501 C259.635896,130.687405 258.382457,131.67912 257.165918,132.714604 C256.015107,133.823805 254.841233,134.909969 253.705413,136.036447 C252.630707,137.220516 251.528327,138.3827 250.472071,139.58635 C249.472318,140.838376 248.446044,142.068517 247.4682,143.338972 C246.546859,144.650893 245.59669,145.943232 244.697258,147.27243 C243.853176,148.636183 242.98142,149.984961 242.159247,151.363687 C241.39473,152.776968 240.615222,154.182186 239.873768,155.605832 L237.824678,159.968919 L236.007365,164.434516 L234.425288,168.989956 L233.103815,173.628327 L232.024497,178.298948 L231.16773,183.09627 C231.062797,183.690608 230.49431,184.085681 229.901607,183.979714 C229.307752,183.873747 228.911079,183.308204 229.017166,182.713866 L229.019473,182.701196 L229.019473,182.701196 L229.931588,177.914241 L231.10085,173.101946 L232.5065,168.379493 L234.122018,163.7273 L235.972771,159.161494 L238.063373,154.699352 C238.816359,153.238847 239.618929,151.803682 240.390364,150.353543 C241.215997,148.931048 242.091213,147.537348 242.939907,146.128675 C243.845105,144.755708 244.804498,143.414992 245.735064,142.056999 C246.723286,140.740471 247.763398,139.45965 248.775835,138.160399 C249.848234,136.908373 250.967912,135.695509 252.063373,134.461912 C253.221103,133.284754 254.419192,132.145606 255.597678,130.986877 L259.352229,127.742206 L263.338556,124.771668 L267.546282,122.108665 L270.142191,120.638912 C268.205844,118.653959 266.336912,116.759636 264.163036,115.581313 C263.41005,115.174722 263.132148,114.234838 263.540352,113.483853 C263.797497,113.008152 264.269122,112.722501 264.771882,112.679884 L264.83415,112.675277 C270.322989,112.250256 275.902925,111.862093 281.525526,112.047536 Z M270.279347,126.102311 C270.446383,126.353955 270.380026,126.693329 270.13176,126.861861 L270.125325,126.865468 C270.118032,126.869941 269.531117,127.245099 268.500299,127.899604 C267.976309,128.218199 267.371089,128.633758 266.696081,129.131275 C266.008487,129.616094 265.241952,130.177099 264.433085,130.831604 C263.613922,131.471103 262.762725,132.208721 261.871485,132.998283 C260.960795,133.765913 260.084428,134.668599 259.162297,135.580521 C258.275633,136.530535 257.336342,137.488629 256.463407,138.534453 C255.565302,139.559499 254.739274,140.671119 253.885789,141.75619 C253.086075,142.883971 252.24403,143.974813 251.510673,145.118755 C250.744138,146.237302 250.050824,147.37778 249.350646,148.458234 C248.699663,149.572163 248.014357,150.613369 247.459477,151.656884 C246.85769,152.675004 246.317683,153.652722 245.817719,154.555409 C244.805206,156.366554 243.963161,157.876418 243.37167,158.933785 C242.783612,159.999232 242.392336,160.593713 242.392336,160.593713 L242.378607,160.613336 C242.211571,160.867289 241.870634,160.937703 241.616648,160.769171 C241.425586,160.639886 241.33978,160.412483 241.382111,160.197777 C241.382111,160.197777 241.520545,159.49479 241.859193,158.289669 C242.011356,157.680182 242.26191,156.965651 242.55594,156.147231 C242.857977,155.331119 243.205778,154.411117 243.673708,153.448406 C244.092442,152.460298 244.655331,151.44795 245.241101,150.37096 C245.837168,149.299741 246.538491,148.213516 247.258119,147.088043 C248.022366,145.992584 248.794622,144.848642 249.685862,143.76588 C250.533627,142.65195 251.471775,141.584195 252.397337,140.510667 C253.370952,139.477541 254.317108,138.423637 255.326189,137.463234 C256.289506,136.458966 257.305451,135.541273 258.268769,134.636278 C259.274417,133.777456 260.211421,132.910554 261.148425,132.146387 C262.078564,131.371831 262.962939,130.64922 263.814137,130.025881 C264.637876,129.367913 265.420429,128.795365 266.126328,128.30362 C266.825362,127.80264 267.431726,127.361686 267.939698,127.029239 C268.951067,126.344721 269.527685,125.953403 269.527685,125.953403 C269.775951,125.786025 270.112311,125.851821 270.279347,126.102311 Z" id="Arrow_blue" transform="translate(264.500000, 149.000000) scale(1, -1) rotate(97.000000) translate(-264.500000, -149.000000) "></path>
            </g>
        </g>
    </g>
</svg>