<?xml version="1.0" encoding="UTF-8"?>
<svg width="20px" height="14px" viewBox="0 0 20 14" version="1.1" xmlns="http://www.w3.org/2000/svg" xmlns:xlink="http://www.w3.org/1999/xlink">
    <!-- Generator: Sketch 64 (93537) - https://sketch.com -->
    <title>Eye@3x</title>
    <desc>Created with Sketch.</desc>
    <g id="Asset" stroke="none" stroke-width="1" fill="none" fill-rule="evenodd">
        <g id="bg" transform="translate(-1136.000000, -492.000000)">
            <g id="Sign-In-" transform="translate(774.000000, 92.000000)">
                <g id="Data" transform="translate(86.000000, 101.000000)">
                    <g id="Password" transform="translate(0.000000, 255.000000)">
                        <g id="Group-3" transform="translate(0.000000, 30.000000)">
                            <g id="Group-4" transform="translate(273.500000, 9.000000)">
                                <g id="Eye" transform="translate(0.500000, 0.000000)">
                                    <rect id="Rectangle" x="0" y="0" width="24" height="24"></rect>
                                    <path d="M21.7768683,11.2214925 C20.7350526,9.49866523 19.3342637,8.11437962 17.5746971,7.0686752 C15.8150133,6.02293126 13.9568591,5.5 12,5.5 C10.0431409,5.5 8.18490851,6.02273363 6.42522468,7.0686752 C4.66550175,8.11437962 3.26479108,9.49866523 2.22313174,11.2214925 C2.07439028,11.4847763 2,11.7443447 2,12.0001976 C2,12.2560505 2.07439028,12.5156189 2.22313174,12.7788237 C3.26479108,14.50173 4.66550175,15.8861342 6.42522468,16.9316015 C8.18490851,17.977464 10.0431409,18.5 12,18.5 C13.9568982,18.5 15.8150524,17.9792032 17.5746971,16.9372932 C19.3342637,15.8953438 20.7352871,14.5091214 21.7768683,12.7788237 C21.9256488,12.5156189 22,12.2561691 22,12.0001976 C22,11.7443447 21.9256488,11.4847763 21.7768683,11.2214925 Z M9.60586835,8.13501228 C10.2717454,7.46172346 11.0697111,7.12496047 11.9998827,7.12496047 C12.1486242,7.12496047 12.275201,7.17776744 12.3794178,7.28302564 C12.4834782,7.38832336 12.535782,7.51626958 12.535782,7.66670619 C12.535782,7.81726138 12.4834782,7.94512855 12.3796523,8.05026817 C12.2755919,8.15568447 12.1489369,8.20833333 12.0001564,8.20833333 C11.360314,8.20833333 10.8132738,8.43790134 10.3594657,8.89672115 C9.90550128,9.35581764 9.67865589,9.90870974 9.67865589,10.5556741 C9.67865589,10.7063084 9.62643024,10.8340965 9.52233077,10.9394733 C9.41807492,11.0449291 9.29165445,11.0975384 9.1428739,11.0975384 C8.99397607,11.0975384 8.86751651,11.0448105 8.76329975,10.9394733 C8.65904391,10.8340965 8.60697463,10.7061503 8.60697463,10.5556741 C8.60697463,9.61534649 8.94003041,8.80834063 9.60586835,8.13501228 Z M16.8494017,15.6849065 C15.3575307,16.5987516 13.7411156,17.0559508 12,17.0559508 C10.2589235,17.0559508 8.64250839,16.5990283 7.15071556,15.6849065 C5.65892273,14.7707847 4.41821174,13.5425879 3.42866078,12.0001976 C4.55960409,10.2246424 5.97700664,8.89668163 7.68086845,8.0166314 C7.2270213,8.7989334 7.00001955,9.64538638 7.00001955,10.5556346 C7.00001955,11.9475883 7.48932228,13.1378399 8.46765411,14.1272986 C9.44598594,15.1167573 10.6235649,15.6112692 12,15.6112692 C13.3765524,15.6112692 14.5537795,15.1164806 15.5323459,14.1272986 C16.5109123,13.1381166 17.0000195,11.9475883 17.0000195,10.5556346 C17.0000195,9.64538638 16.7729787,8.79881482 16.3190925,8.0166314 C18.0228761,8.89668163 19.4403568,10.224761 20.571261,12.0001976 C19.5818664,13.5425879 18.3412727,14.7707847 16.8494017,15.6849065 Z" id="Shape" fill="#1B9FF4" fill-rule="nonzero"></path>
                                </g>
                            </g>
                        </g>
                    </g>
                </g>
            </g>
        </g>
    </g>
</svg>